<?xml version="1.0" encoding="utf-8"?>
<!-- Generator: Adobe Illustrator 23.0.2, SVG Export Plug-In . SVG Version: 6.00 Build 0)  -->
<svg version="1.1" xmlns="http://www.w3.org/2000/svg" xmlns:xlink="http://www.w3.org/1999/xlink" x="0px" y="0px"
	 viewBox="0 0 25 23" style="enable-background:new 0 0 25 23;" xml:space="preserve">
<style type="text/css">
	.st0{display:none;}
	.st1{display:inline;}
	.st2{fill:#1D1D1B;}
	.st3{fill:#9C9B9B;}
	.st4{fill:none;stroke:#9C9B9B;stroke-width:0.85;stroke-miterlimit:10;}
</style>
<g id="Layer_1">
	<g class="st0">
		<g transform="translate(0,-952.36218)" class="st1">
			<path class="st2" d="M40.1,972.42c0.29-0.04,0.5-0.3,0.46-0.6c0-0.01,0-0.02,0-0.02l-0.68-4.17l2.98-2.97
				c0.21-0.21,0.21-0.55,0-0.76c-0.08-0.08-0.18-0.14-0.3-0.15l-4.15-0.64l-1.88-3.78c-0.13-0.27-0.45-0.37-0.72-0.24
				c-0.1,0.05-0.19,0.14-0.24,0.24l-1.88,3.78l-4.15,0.64c-0.29,0.05-0.49,0.32-0.45,0.61c0.02,0.11,0.07,0.22,0.15,0.3l2.98,2.97
				l-0.68,4.17c-0.05,0.29,0.15,0.57,0.44,0.62c0.12,0.02,0.23,0,0.34-0.05l3.73-1.94l3.73,1.94
				C39.88,972.42,39.99,972.44,40.1,972.42L40.1,972.42z"/>
		</g>
		<g transform="translate(0,-952.36218)" class="st1">
			<path class="st2" d="M59.69,972.42c0.29-0.04,0.5-0.3,0.46-0.6c0-0.01,0-0.02,0-0.02l-0.68-4.17l2.98-2.97
				c0.21-0.21,0.21-0.55,0-0.76c-0.08-0.08-0.18-0.14-0.3-0.15L58,963.1l-1.88-3.78c-0.13-0.27-0.45-0.37-0.72-0.24
				c-0.1,0.05-0.19,0.14-0.24,0.24l-1.88,3.78l-4.15,0.64c-0.29,0.05-0.49,0.32-0.45,0.61c0.02,0.11,0.07,0.22,0.15,0.3l2.98,2.97
				l-0.68,4.17c-0.05,0.29,0.15,0.57,0.44,0.62c0.12,0.02,0.23,0,0.34-0.05l3.73-1.94l3.73,1.94
				C59.47,972.42,59.58,972.44,59.69,972.42L59.69,972.42z"/>
		</g>
		<g transform="translate(0,-952.36218)" class="st1">
			<path class="st2" d="M79.27,972.42c0.29-0.04,0.5-0.3,0.46-0.6c0-0.01,0-0.02,0-0.02l-0.68-4.17l2.98-2.97
				c0.21-0.21,0.21-0.55,0-0.76c-0.08-0.08-0.18-0.14-0.3-0.15l-4.15-0.64l-1.88-3.78c-0.13-0.27-0.45-0.37-0.72-0.24
				c-0.1,0.05-0.19,0.14-0.24,0.24l-1.88,3.78l-4.15,0.64c-0.29,0.05-0.49,0.32-0.45,0.61c0.02,0.11,0.07,0.22,0.15,0.3l2.98,2.97
				l-0.68,4.17c-0.05,0.29,0.15,0.57,0.44,0.62c0.12,0.02,0.23,0,0.34-0.05l3.73-1.94l3.73,1.94
				C79.05,972.42,79.16,972.44,79.27,972.42L79.27,972.42z"/>
		</g>
		<g transform="translate(0,-952.36218)" class="st1">
			<path class="st2" d="M98.86,972.42c0.29-0.04,0.5-0.3,0.46-0.6c0-0.01,0-0.02,0-0.02l-0.68-4.17l2.98-2.97
				c0.21-0.21,0.21-0.55,0-0.76c-0.08-0.08-0.18-0.14-0.3-0.15l-4.15-0.64l-1.88-3.78c-0.13-0.27-0.45-0.37-0.72-0.24
				c-0.1,0.05-0.19,0.14-0.24,0.24l-1.88,3.78l-4.15,0.64c-0.29,0.05-0.49,0.32-0.45,0.61c0.02,0.11,0.07,0.22,0.15,0.3l2.98,2.97
				l-0.68,4.17c-0.05,0.29,0.15,0.57,0.44,0.62c0.12,0.02,0.23,0,0.34-0.05l3.73-1.94l3.73,1.94
				C98.64,972.42,98.75,972.44,98.86,972.42L98.86,972.42z"/>
		</g>
		<g transform="translate(0,-952.36218)" class="st1">
			<path class="st2" d="M118.45,972.42c0.29-0.04,0.5-0.3,0.46-0.6c0-0.01,0-0.02,0-0.02l-0.68-4.17l2.98-2.97
				c0.21-0.21,0.21-0.55,0-0.76c-0.08-0.08-0.18-0.14-0.3-0.15l-4.15-0.64l-1.88-3.78c-0.13-0.27-0.45-0.37-0.72-0.24
				c-0.1,0.05-0.19,0.14-0.24,0.24l-1.88,3.78l-4.15,0.64c-0.29,0.05-0.49,0.32-0.45,0.61c0.02,0.11,0.07,0.22,0.15,0.3l2.98,2.97
				l-0.68,4.17c-0.05,0.29,0.15,0.57,0.44,0.62c0.12,0.02,0.23,0,0.34-0.05l3.73-1.94l3.73,1.94
				C118.23,972.42,118.34,972.44,118.45,972.42L118.45,972.42z M117.68,970.92l-3.03-1.58c-0.15-0.08-0.34-0.08-0.49,0l-3.03,1.58
				l0.56-3.39c0.03-0.17-0.03-0.35-0.15-0.47l-2.43-2.42l3.37-0.51c0.17-0.03,0.32-0.13,0.4-0.29l1.53-3.07l1.53,3.07
				c0.08,0.16,0.23,0.26,0.4,0.29l3.37,0.51l-2.43,2.42c-0.12,0.12-0.18,0.3-0.15,0.47L117.68,970.92L117.68,970.92z"/>
		</g>
	</g>
	<g>
		<g>
			<path class="st3" d="M-22.7,7.63c-0.52,0.23-1.08,0.39-1.67,0.46c0.6-0.36,1.06-0.93,1.28-1.61c-0.56,0.33-1.18,0.57-1.85,0.7
				c-0.53-0.56-1.28-0.92-2.12-0.92c-1.6,0-2.91,1.3-2.91,2.91c0,0.23,0.02,0.45,0.07,0.66c-2.42-0.12-4.56-1.28-5.99-3.04
				c-0.25,0.43-0.39,0.93-0.39,1.46c0,1.01,0.51,1.9,1.29,2.42c-0.48-0.01-0.92-0.15-1.32-0.36v0.04c0,1.41,1,2.58,2.33,2.85
				c-0.24,0.07-0.5,0.1-0.77,0.1c-0.19,0-0.37-0.02-0.55-0.05c0.37,1.15,1.44,1.99,2.71,2.02c-0.99,0.78-2.25,1.24-3.61,1.24
				c-0.23,0-0.47-0.01-0.69-0.04c1.29,0.82,2.81,1.31,4.45,1.31c5.35,0,8.27-4.43,8.27-8.27c0-0.13,0-0.25-0.01-0.38
				C-23.58,8.72-23.09,8.21-22.7,7.63L-22.7,7.63z"/>
			<path class="st3" d="M12.63,4.23c-3.9,0-7.07,3.17-7.07,7.07c0,2.89,1.74,5.38,4.23,6.48c-0.02-0.49,0-1.09,0.12-1.62
				c0.14-0.57,0.91-3.85,0.91-3.85s-0.23-0.45-0.23-1.12c0-1.05,0.61-1.83,1.36-1.83c0.64,0,0.95,0.48,0.95,1.06
				c0,0.65-0.41,1.61-0.62,2.51c-0.18,0.75,0.38,1.36,1.12,1.36c1.34,0,2.24-1.72,2.24-3.76c0-1.55-1.04-2.71-2.94-2.71
				c-2.14,0-3.48,1.6-3.48,3.39c0,0.62,0.18,1.05,0.47,1.39c0.13,0.16,0.15,0.22,0.1,0.39c-0.03,0.13-0.11,0.44-0.14,0.57
				c-0.05,0.18-0.19,0.24-0.35,0.18c-0.99-0.4-1.45-1.49-1.45-2.7c0-2.01,1.69-4.42,5.05-4.42c2.7,0,4.48,1.95,4.48,4.05
				c0,2.77-1.54,4.85-3.82,4.85c-0.76,0-1.48-0.41-1.73-0.88c0,0-0.41,1.63-0.5,1.94c-0.15,0.54-0.44,1.09-0.71,1.51
				c0.64,0.19,1.31,0.29,2,0.29c3.9,0,7.07-3.17,7.07-7.07C19.7,7.39,16.53,4.23,12.63,4.23L12.63,4.23z"/>
			<path class="st3" d="M51.64,8.94h1.46V7.52c0-0.63,0.02-1.59,0.47-2.19c0.48-0.63,1.14-1.06,2.27-1.06
				c1.84,0,2.62,0.26,2.62,0.26L58.1,6.69c0,0-0.61-0.18-1.18-0.18c-0.57,0-1.08,0.2-1.08,0.77v1.65h2.33l-0.16,2.12h-2.17v7.35
				H53.1v-7.35h-1.46V8.94z"/>
		</g>
		<g>
			<g>
				<path class="st4" d="M-78.17,20.09c0.18,0.09,0.42,0.07,0.58-0.05l4.62-3.65l4.62,3.63c0.09,0.07,0.22,0.11,0.35,0.11
					c0.07,0,0.16-0.02,0.24-0.05c0.18-0.09,0.31-0.27,0.31-0.49V5.18c0-0.6-0.49-1.09-1.09-1.09h-8.81c-0.6,0-1.09,0.49-1.09,1.09
					v14.41C-78.46,19.81-78.35,19.99-78.17,20.09z"/>
			</g>
		</g>
	</g>
</g>
<g id="Layer_2">
</g>
</svg>
