<svg id="Layer_2" data-name="Layer 2" xmlns="http://www.w3.org/2000/svg" viewBox="0 0 621.33 160.79"><defs><style>.cls-1{font-size:72.95px;fill:#fff;font-family:Roboto-Regular, Roboto;letter-spacing:0.18em;}.cls-2{letter-spacing:0.14em;}.cls-3{letter-spacing:0.19em;}.cls-4{letter-spacing:0.2em;}.cls-5{fill:none;stroke:#fff;stroke-miterlimit:10;stroke-width:1.3px;}</style></defs><title>watches_logo</title><text class="cls-1" transform="translate(186.27 108.23)">W<tspan class="cls-2" x="77.78" y="0">A</tspan><tspan class="cls-3" x="135.36" y="0">T</tspan><tspan class="cls-4" x="192.48" y="0">CHES</tspan></text><path class="cls-5" d="M174.43,101a57.63,57.63,0,0,0-20.21-33.8" transform="translate(-59.35 -31.58)"/><path class="cls-5" d="M174.43,122.92a57.68,57.68,0,0,1-20.21,33.81" transform="translate(-59.35 -31.58)"/><path class="cls-5" d="M81.28,67.21a57.69,57.69,0,0,1,72.94,0" transform="translate(-59.35 -31.58)"/><path class="cls-5" d="M81.28,67.21a57.71,57.71,0,0,0,0,89.52" transform="translate(-59.35 -31.58)"/><path class="cls-5" d="M174.43,101a56.62,56.62,0,0,1,0,21.91" transform="translate(-59.35 -31.58)"/><path class="cls-5" d="M81.28,156.73a57.69,57.69,0,0,0,72.94,0" transform="translate(-59.35 -31.58)"/><line class="cls-5" x1="94.87" x2="94.87" y2="35.63"/><line class="cls-5" x1="21.93" y1="35.63" x2="21.93"/><line class="cls-5" x1="94.87" y1="160.79" x2="94.87" y2="125.15"/><line class="cls-5" x1="21.93" y1="125.15" x2="21.93" y2="160.79"/><polyline class="cls-5" points="115.08 69.43 133.46 69.43 133.46 91.34 115.08 91.34"/></svg>